<svg width="128" height="128" viewBox="0 0 128 128" xmlns="http://www.w3.org/2000/svg">
  <defs>
    <linearGradient id="gradient" x1="0%" y1="0%" x2="100%" y2="100%">
      <stop offset="0%" style="stop-color:#667eea;stop-opacity:1" />
      <stop offset="100%" style="stop-color:#764ba2;stop-opacity:1" />
    </linearGradient>
  </defs>
  
  <!-- Background circle -->
  <circle cx="64" cy="64" r="60" fill="url(#gradient)" stroke="#fff" stroke-width="4"/>
  
  <!-- AI Brain icon -->
  <g transform="translate(32, 32)">
    <!-- Brain outline -->
    <path d="M32 16c0-8.8-7.2-16-16-16S0 7.2 0 16c0 4.4 1.8 8.4 4.7 11.3C2.8 30.2 0 35.4 0 41.3c0 6.9 5.6 12.5 12.5 12.5h7c1.1 0 2-.9 2-2s-.9-2-2-2h-7c-4.7 0-8.5-3.8-8.5-8.5 0-3.2 1.8-6.1 4.7-7.6C6.8 30.2 4 26.2 4 21.3c0-5.5 4.5-10 10-10s10 4.5 10 10c0 1.1.9 2 2 2s2-.9 2-2c0-7.7-6.3-14-14-14S0 8.3 0 16c0 4.4 1.8 8.4 4.7 11.3z" fill="#fff"/>
    
    <!-- Neural network nodes -->
    <circle cx="16" cy="24" r="3" fill="#fff"/>
    <circle cx="32" cy="20" r="3" fill="#fff"/>
    <circle cx="24" cy="32" r="3" fill="#fff"/>
    <circle cx="40" cy="28" r="3" fill="#fff"/>
    
    <!-- Connection lines -->
    <line x1="16" y1="24" x2="24" y2="32" stroke="#fff" stroke-width="2"/>
    <line x1="24" y1="32" x2="32" y2="20" stroke="#fff" stroke-width="2"/>
    <line x1="32" y1="20" x2="40" y2="28" stroke="#fff" stroke-width="2"/>
    <line x1="16" y1="24" x2="32" y2="20" stroke="#fff" stroke-width="1"/>
  </g>
  
  <!-- Sparkle effects -->
  <g fill="#fff" opacity="0.8">
    <circle cx="20" cy="20" r="1"/>
    <circle cx="100" cy="30" r="1.5"/>
    <circle cx="25" cy="100" r="1"/>
    <circle cx="95" cy="95" r="1.5"/>
  </g>
</svg>
